<svg xmlns="http://www.w3.org/2000/svg" viewBox="0 0 38.814 38.042">
  <defs>
    <style>
      .cls-1 {
        fill: #fff;
      }
    </style>
  </defs>
  <g id="Group_46" data-name="Group 46" transform="translate(0.001)">
    <g id="Group_35" data-name="Group 35" transform="translate(0.227 33.071)">
      <path id="Path_1053" data-name="Path 1053" class="cls-1" d="M37.375,223.171H3.97a2.486,2.486,0,0,1-1.743-4.244A2.429,2.429,0,0,1,3.97,218.2H37.39a2.486,2.486,0,0,1-.015,4.971ZM3.97,219.4a1.281,1.281,0,0,0-.015,2.561H37.375a1.281,1.281,0,0,0,0-2.561Z" transform="translate(-1.5 -218.2)"/>
    </g>
    <g id="Group_36" data-name="Group 36" transform="translate(2.092 13.08)">
      <path id="Path_1054" data-name="Path 1054" class="cls-1" d="M47.81,105.245h-33.4a.608.608,0,0,1-.606-.606,19.152,19.152,0,0,1,5.047-12.777A16.671,16.671,0,0,1,31.108,86.3,16.687,16.687,0,0,1,43.37,91.877a19.037,19.037,0,0,1,5.047,12.7v.061A.608.608,0,0,1,47.81,105.245Zm-32.783-1.212H47.2c-.318-9.018-7.563-16.52-16.1-16.52S15.331,95.015,15.028,104.033Z" transform="translate(-13.8 -86.3)"/>
    </g>
    <g id="Group_37" data-name="Group 37" transform="translate(13.86 15.833)">
      <path id="Path_1055" data-name="Path 1055" class="cls-1" d="M92.045,106.685a.605.605,0,0,1-.288-1.137c.682-.364,1.394-.712,2.152-1.031a.611.611,0,0,1,.485,1.122,21.687,21.687,0,0,0-2.061.985A.7.7,0,0,1,92.045,106.685Z" transform="translate(-91.445 -104.467)"/>
    </g>
    <g id="Group_38" data-name="Group 38" transform="translate(7.548 19.138)">
      <path id="Path_1056" data-name="Path 1056" class="cls-1" d="M50.407,130.43a.653.653,0,0,1-.364-.121.6.6,0,0,1-.121-.849,18.02,18.02,0,0,1,2.94-3.046.6.6,0,1,1,.773.925,16.806,16.806,0,0,0-2.743,2.849A.589.589,0,0,1,50.407,130.43Z" transform="translate(-49.801 -126.273)"/>
    </g>
    <g id="Group_39" data-name="Group 39" transform="translate(6.926 30.812)">
      <path id="Path_1057" data-name="Path 1057" class="cls-1" d="M46.306,206.756a.608.608,0,0,1-.606-.606v-2.243a.606.606,0,0,1,1.213,0v2.243A.608.608,0,0,1,46.306,206.756Z" transform="translate(-45.7 -203.3)"/>
    </g>
    <g id="Group_40" data-name="Group 40" transform="translate(30.661 30.812)">
      <path id="Path_1058" data-name="Path 1058" class="cls-1" d="M202.906,206.756a.608.608,0,0,1-.606-.606v-2.243a.606.606,0,0,1,1.212,0v2.243A.6.6,0,0,1,202.906,206.756Z" transform="translate(-202.3 -203.3)"/>
    </g>
    <g id="Group_41" data-name="Group 41" transform="translate(18.794 11.003)">
      <path id="Path_1059" data-name="Path 1059" class="cls-1" d="M124.606,75.889a.608.608,0,0,1-.606-.606V73.206a.606.606,0,1,1,1.212,0v2.076A.608.608,0,0,1,124.606,75.889Z" transform="translate(-124 -72.6)"/>
    </g>
    <g id="Group_42" data-name="Group 42" transform="translate(16.838 11.003)">
      <path id="Path_1060" data-name="Path 1060" class="cls-1" d="M115.6,73.812h-3.9a.606.606,0,0,1,0-1.213h3.9a.606.606,0,0,1,0,1.213Z" transform="translate(-111.1 -72.6)"/>
    </g>
    <g id="Group_43" data-name="Group 43" transform="translate(33.131 7.017)">
      <path id="Path_1061" data-name="Path 1061" class="cls-1" d="M219.206,52a.614.614,0,0,1-.424-1.046l4.456-4.471a.611.611,0,0,1,.864.864l-4.456,4.471A.661.661,0,0,1,219.206,52Z" transform="translate(-218.6 -46.3)"/>
    </g>
    <g id="Group_44" data-name="Group 44" transform="translate(0 7.017)">
      <path id="Path_1062" data-name="Path 1062" class="cls-1" d="M5.062,52a.6.6,0,0,1-.424-.182L.182,47.346a.6.6,0,0,1,0-.864.6.6,0,0,1,.864,0L5.5,50.953A.614.614,0,0,1,5.062,52Z" transform="translate(0 -46.3)"/>
    </g>
    <g id="Group_45" data-name="Group 45" transform="translate(18.794)">
      <path id="Path_1063" data-name="Path 1063" class="cls-1" d="M124.606,7.73A.608.608,0,0,1,124,7.123V.606a.606.606,0,1,1,1.212,0V7.123A.608.608,0,0,1,124.606,7.73Z" transform="translate(-124)"/>
    </g>
  </g>
</svg>
